<?xml version="1.0" encoding="UTF-8"?>
<svg version="1.1" xmlns="http://www.w3.org/2000/svg" width="600" height="335">
<path d="M0 0 C0.71557068 0.26987228 1.43114136 0.53974457 2.168396 0.8177948 C2.98271088 1.12611992 2.98271088 1.12611992 3.81347656 1.44067383 C3.90664082 9.72558576 3.9774745 18.01027452 4.02072525 26.29558277 C4.04149586 30.14385958 4.06961728 33.99177491 4.11523438 37.83984375 C4.15907279 41.5616626 4.18269256 45.28313636 4.19298553 49.00519371 C4.2003095 50.41682038 4.21460924 51.82843069 4.23639679 53.23990822 C4.40770097 64.81020579 3.18880469 75.1077521 -5.16918945 83.73266602 C-12.98547743 90.35045019 -20.67869883 91.1410144 -30.62402344 90.81567383 C-31.79384766 90.80149414 -32.96367187 90.78731445 -34.16894531 90.77270508 C-42.62929509 90.62641661 -42.62929509 90.62641661 -46.18652344 89.44067383 C-46.18652344 85.15067383 -46.18652344 80.86067383 -46.18652344 76.44067383 C-44.93097656 76.54766602 -43.67542969 76.6546582 -42.38183594 76.76489258 C-29.38392087 78.1598618 -29.38392087 78.1598618 -17.18652344 74.44067383 C-14.82309661 71.83484425 -13.73967695 69.60907464 -12.99902344 66.19067383 C-12.73089844 64.95317383 -12.46277344 63.71567383 -12.18652344 62.44067383 C-13.23839844 62.79129883 -14.29027344 63.14192383 -15.37402344 63.50317383 C-24.93749965 65.81392558 -34.02221633 64.03187027 -42.52246094 59.28833008 C-50.92413928 53.46135962 -54.20239959 45.23214891 -56.18652344 35.44067383 C-57.44491947 26.07405594 -55.54397926 16.46660056 -50.26855469 8.56958008 C-36.8414478 -7.42412423 -18.2889075 -6.90927293 0 0 Z M-36.56152344 15.69067383 C-40.24177033 21.91878395 -41.44350966 29.49530466 -39.65136719 36.54614258 C-37.69966379 42.23061203 -35.35519756 46.20750619 -29.99902344 49.25317383 C-23.30052354 51.33959183 -18.70138513 51.04661851 -12.18652344 48.44067383 C-12.18652344 36.23067383 -12.18652344 24.02067383 -12.18652344 11.44067383 C-21.95358972 8.18498507 -28.95413737 8.4836765 -36.56152344 15.69067383 Z " fill="#554741" transform="translate(409.1865234375,138.559326171875)"/>
<path d="M0 0 C5.28 0 10.56 0 16 0 C16 9.24 16 18.48 16 28 C17.98 27.67 19.96 27.34 22 27 C31.12350615 26.17672504 39.0127394 27.67339969 46.375 33.375 C52.41784812 39.41784812 55.04582034 45.4904942 55.22705078 53.92553711 C55.2267375 55.79283593 55.21563982 57.66015554 55.1953125 59.52734375 C55.1924826 60.51626114 55.18965271 61.50517853 55.18673706 62.52406311 C55.17560142 65.66200195 55.15050903 68.79964839 55.125 71.9375 C55.11496165 74.07356357 55.1058373 76.20963164 55.09765625 78.34570312 C55.07568375 83.5639136 55.04119964 88.78190734 55 94 C49.72 94 44.44 94 39 94 C38.98541748 92.69329346 38.97083496 91.38658691 38.95581055 90.0402832 C38.89777185 85.18518925 38.82053884 80.33055637 38.73754883 75.47583008 C38.70432578 73.37597139 38.6762857 71.27602397 38.65356445 69.17602539 C38.61997064 66.15472656 38.56765166 63.13423899 38.51171875 60.11328125 C38.50532883 59.17664139 38.4989389 58.24000153 38.49235535 57.27497864 C38.38285873 52.40406418 38.23176584 48.91371136 35 45 C30.20003652 41.76281533 26.60088015 41.5554857 21 42 C19.35 42.66 17.7 43.32 16 44 C16 60.5 16 77 16 94 C10.72 94 5.44 94 0 94 C0 62.98 0 31.96 0 0 Z " fill="#554741" transform="translate(426,107)"/>
<path d="M0 0 C5.68583034 4.62800144 10.15449675 10.17327713 10.94662476 17.62521362 C11.03343841 20.47249968 11.02492913 23.30408863 10.98046875 26.15234375 C10.97622391 27.18565323 10.97197906 28.21896271 10.96760559 29.28358459 C10.95089394 32.56432822 10.91325511 35.84444392 10.875 39.125 C10.85994348 41.35741297 10.84625677 43.58983562 10.83398438 45.82226562 C10.80101493 51.27758346 10.74928414 56.73243549 10.6875 62.1875 C5.4075 62.1875 0.1275 62.1875 -5.3125 62.1875 C-5.32708252 60.85050049 -5.34166504 59.51350098 -5.35668945 58.13598633 C-5.41472124 53.16908201 -5.49195435 48.20262871 -5.57495117 43.23608398 C-5.60817746 41.08772102 -5.63621653 38.93927125 -5.65893555 36.79077148 C-5.69252331 33.69998224 -5.74484221 30.60998688 -5.80078125 27.51953125 C-5.80717117 26.56101761 -5.8135611 25.60250397 -5.82014465 24.61494446 C-5.92767797 19.72260278 -6.00824214 16.08895439 -9.3125 12.1875 C-15.34881943 9.30652936 -20.90053518 9.90510704 -27.3125 11.1875 C-27.6425 28.0175 -27.9725 44.8475 -28.3125 62.1875 C-33.5925 62.1875 -38.8725 62.1875 -44.3125 62.1875 C-44.3125 42.0575 -44.3125 21.9275 -44.3125 1.1875 C-28.83598858 -4.76500439 -15.05147303 -8.23571166 0 0 Z " fill="#554741" transform="translate(251.3125,138.8125)"/>
<path d="M0 0 C-0.57634139 4.75481646 -2.55068521 7.97048212 -5 12 C-5.76183594 11.77183594 -6.52367187 11.54367188 -7.30859375 11.30859375 C-16.59940219 8.72036019 -16.59940219 8.72036019 -26 10 C-27.7289218 11.47242844 -27.7289218 11.47242844 -29 13 C-28.62639722 15.43425604 -28.62639722 15.43425604 -27 18 C-24.25828658 19.67980926 -21.30627734 20.78238305 -18.3125 21.9375 C-10.83741684 24.85564575 -4.84191479 28.05798917 -0.0625 34.6875 C1.83023019 40.5883647 1.83023019 46.4116353 -0.0625 52.3125 C-4.44304428 58.38873884 -9.49144136 61.99809808 -16.8125 63.625 C-28.58914941 65.01048817 -37.64760912 62.61986933 -48 57 C-46.35 53.37 -44.7 49.74 -43 46 C-39.4776683 46.70446634 -36.57902826 47.46092803 -33.25 48.625 C-28.39399343 50.10575537 -23.9005785 50.583418 -19 49 C-17.07687871 47.9258377 -17.07687871 47.9258377 -16 46 C-15.63358486 42.95386333 -15.63358486 42.95386333 -17 40 C-19.59655261 38.50751747 -21.78557868 37.50002594 -24.5625 36.5 C-32.86344465 33.19227714 -41.16202123 29.63545223 -45 21 C-45.99784382 14.2716817 -45.79326883 8.29688472 -41.69140625 2.6875 C-30.10424346 -8.87290259 -13.57605541 -5.88295734 0 0 Z " fill="#554741" transform="translate(317,139)"/>
<path d="M0 0 C5.28 0 10.56 0 16 0 C16 6.27 16 12.54 16 19 C21.28 19 26.56 19 32 19 C32 23.29 32 27.58 32 32 C26.72 32 21.44 32 16 32 C16.11400468 36.54218644 16.24076565 41.08340447 16.375 45.625 C16.4059375 46.91019531 16.436875 48.19539063 16.46875 49.51953125 C16.50742187 50.76347656 16.54609375 52.00742188 16.5859375 53.2890625 C16.63306885 55.00150146 16.63306885 55.00150146 16.68115234 56.74853516 C17.08875382 60.90507149 17.79143975 64.59807011 20.5625 67.8125 C24.29381328 69.63031929 27.87228386 69.69649146 32 70 C32 74.62 32 79.24 32 84 C21.55611632 84.40558772 14.31846675 84.39351601 6.125 77.625 C-1.48300268 68.22687904 -0.1456651 56.64146689 -0.09765625 45.1171875 C-0.0962413 43.82177032 -0.09482635 42.52635315 -0.09336853 41.19168091 C-0.08958811 37.78216549 -0.0797972 34.37269408 -0.06866455 30.9631958 C-0.05835308 27.47026159 -0.05385025 23.97732012 -0.04882812 20.484375 C-0.03816994 13.65623033 -0.02061057 6.82812182 0 0 Z " fill="#554741" transform="translate(492,117)"/>
<path d="M0 0 C0.70253906 0.00386719 1.40507812 0.00773437 2.12890625 0.01171875 C2.83144531 0.00785156 3.53398437 0.00398438 4.2578125 0 C9.50229247 0.01010497 9.50229247 0.01010497 10.62890625 1.13671875 C10.72411531 3.96712547 10.75444256 6.77306868 10.74243164 9.60375977 C10.74257767 10.49148071 10.74272369 11.37920166 10.74287415 12.29382324 C10.74217468 15.24278159 10.73438073 18.19167762 10.7265625 21.140625 C10.72469844 23.17943792 10.72327448 25.21825129 10.72227478 27.25706482 C10.71844866 32.63456449 10.70861757 38.01203733 10.6975708 43.38952637 C10.6873587 48.87231076 10.68277759 54.35509947 10.67773438 59.83789062 C10.66699539 70.60418037 10.64939783 81.37044314 10.62890625 92.13671875 C5.01890625 92.13671875 -0.59109375 92.13671875 -6.37109375 92.13671875 C-6.39364353 80.28906362 -6.41200811 68.44142264 -6.42290592 56.59375095 C-6.42813506 51.09301013 -6.43523326 45.5922847 -6.4465332 40.09155273 C-6.457361 34.78775315 -6.46337035 29.4839684 -6.46597099 24.18015862 C-6.46782544 22.15186263 -6.47144642 20.12356749 -6.47682381 18.09527779 C-6.48403281 15.26475361 -6.48508475 12.43429157 -6.48461914 9.60375977 C-6.48821442 8.75643784 -6.49180969 7.90911591 -6.49551392 7.03611755 C-6.48292677 0.01249119 -6.48292677 0.01249119 0 0 Z " fill="#554741" transform="translate(183.37109375,108.86328125)"/>
<path d="M0 0 C4.95 0 9.9 0 15 0 C15 21.45 15 42.9 15 65 C10.05 65 5.1 65 0 65 C0 43.55 0 22.1 0 0 Z " fill="#544741" transform="translate(328,136)"/>
<path d="M0 0 C7.38728102 -0.02526692 14.77455098 -0.0428316 22.16186523 -0.05493164 C24.67716895 -0.05997363 27.19246972 -0.06680703 29.70776367 -0.07543945 C33.31429775 -0.08751094 36.92079323 -0.09322949 40.52734375 -0.09765625 C42.22575661 -0.10539818 42.22575661 -0.10539818 43.95848083 -0.11329651 C45.51998619 -0.11340981 45.51998619 -0.11340981 47.11303711 -0.11352539 C48.03459091 -0.115746 48.95614471 -0.11796661 49.90562439 -0.12025452 C52 0 52 0 53 1 C53.0989294 3.16480797 53.129711 5.33293785 53.125 7.5 C53.12886719 9.27890625 53.12886719 9.27890625 53.1328125 11.09375 C53 14 53 14 52 15 C50.4093669 15.09854422 48.81438523 15.12798694 47.22070312 15.12939453 C45.69407043 15.13412277 45.69407043 15.13412277 44.13659668 15.13894653 C43.02933228 15.1369223 41.92206787 15.13489807 40.78125 15.1328125 C39.65303833 15.13376923 38.52482666 15.13472595 37.36242676 15.13571167 C34.97159774 15.13639368 32.58076689 15.13453797 30.18994141 15.13037109 C26.51590849 15.12502316 22.84199783 15.13031543 19.16796875 15.13671875 C16.85156223 15.13605797 14.53515578 15.13477682 12.21875 15.1328125 C11.1114856 15.13483673 10.00422119 15.13686096 8.86340332 15.13894653 C7.84564819 15.13579437 6.82789307 15.13264221 5.77929688 15.12939453 C4.87852417 15.12859894 3.97775146 15.12780334 3.04968262 15.12698364 C1 15 1 15 0 14 C-0.07271741 11.64686445 -0.08370868 9.29166332 -0.0625 6.9375 C-0.05347656 5.64714844 -0.04445312 4.35679687 -0.03515625 3.02734375 C-0.02355469 2.02832031 -0.01195312 1.02929688 0 0 Z " fill="#EC1844" transform="translate(54,168)"/>
<path d="M0 0 C4.62 0 9.24 0 14 0 C14 17.49 14 34.98 14 53 C9.38 53 4.76 53 0 53 C0 35.51 0 18.02 0 0 Z " fill="#D30B54" transform="translate(73,109)"/>
<path d="M0 0 C4.62 0 9.24 0 14 0 C14 17.16 14 34.32 14 52 C9.38 52 4.76 52 0 52 C0 34.84 0 17.68 0 0 Z " fill="#B01B87" transform="translate(113,149)"/>
<path d="M0 0 C17.16 0 34.32 0 52 0 C52 4.62 52 9.24 52 14 C34.84 14 17.68 14 0 14 C0 9.38 0 4.76 0 0 Z " fill="#D30E8B" transform="translate(94,128)"/>
<path d="M0 0 C1.65112695 2.3463383 2.05627128 3.80046813 2.1875 6.6875 C0.21760033 12.80455686 0.21760033 12.80455686 -2.5625 15.1875 C-5.9452916 15.93923147 -8.46466944 15.52445764 -11.8125 14.6875 C-14.77576994 12.58201873 -15.64472327 11.21320041 -16.75 7.75 C-16.82495915 4.07700179 -15.991242 2.59248934 -13.8125 -0.3125 C-9.47840094 -4.64659906 -4.76381464 -3.44965887 0 0 Z " fill="#554741" transform="translate(342.8125,111.3125)"/>
<path d="M0 0 C2.95554717 2.70401124 4.69565258 4.61352843 5.5625 8.5625 C4.76977456 11.99764359 3.59199879 13.60738573 1 16 C-3.25781751 17.34042403 -5.28442361 17.28623056 -9.4375 15.625 C-12.18427941 12.81122597 -12.46606853 12.22742967 -12.6875 8.5 C-12.44191504 5.11204389 -12.13853138 4.17211474 -9.9375 1.4375 C-6.19976004 -0.39160679 -4.11028784 -0.73397997 0 0 Z " fill="#D30E88" transform="translate(64,127)"/>
<path d="M0 0 C3.41639845 1.9739191 4.72268412 3.18538459 6 6.9375 C6 10.6256376 5.2997943 12.14508294 3 15 C0.45770394 16.92863839 -0.78345018 17.00902291 -4 16.875 C-7.57231176 15.83307574 -8.93095202 15.10357196 -11 12 C-11.61636963 9.19465409 -11.6598016 6.79985377 -11 4 C-7.72794548 0.1505241 -4.96702569 -0.82783761 0 0 Z " fill="#EB1746" transform="translate(143,167)"/>
<path d="M0 0 C3.00342896 2.05497771 3.83287356 3.47633714 4.9375 6.9375 C5.01327396 10.65042412 4.3135507 12.12800603 2 15 C-0.54229606 16.92863839 -1.78345018 17.00902291 -5 16.875 C-8.53800495 15.84308189 -9.91772554 15.04332421 -12 12 C-12.72125695 7.59231863 -12.52001338 5.74062512 -9.9375 2.0625 C-6.25937488 -0.52001338 -4.40768137 -0.72125695 0 0 Z " fill="#B11B85" transform="translate(124,107)"/>
<path d="M0 0 C1.90625 0.41015625 1.90625 0.41015625 4.40625 1.91015625 C6.52209485 5.43656434 6.71355018 8.39836864 5.90625 12.41015625 C3.86319308 15.47474163 2.46545198 16.23168753 -1.03125 17.34765625 C-4.69247681 17.42237516 -6.2242174 16.62379569 -9.09375 14.41015625 C-10.64399464 11.30966697 -10.38367015 8.83121407 -10.09375 5.41015625 C-7.62840011 0.58217939 -5.16353434 -0.37570492 0 0 Z " fill="#D30C54" transform="translate(82.09375,186.58984375)"/>
<path d="M0 0 C2.42522207 2.42522207 2.29629254 3.1720679 2.3125 6.5 C2.33763672 7.69109375 2.33763672 7.69109375 2.36328125 8.90625 C2.24339844 9.5971875 2.12351562 10.288125 2 11 C-1.49565336 13.33043558 -2.8865729 13.58763244 -7 13 C-9.4375 10.8125 -9.4375 10.8125 -11 8 C-10.93182826 5.13678706 -10.37360729 3.60192285 -8.875 1.1875 C-5.92855131 -0.67858417 -3.39099619 -0.30827238 0 0 Z M-8 5 C-7 8 -7 8 -7 8 Z M-4 9 C-3 11 -3 11 -3 11 Z " fill="#554641" transform="translate(546,191)"/>
</svg>
